<svg xmlns="http://www.w3.org/2000/svg" viewBox="0 0 813.96 577.55"><defs><style>.cls-1{fill:none;stroke:#272525;stroke-miterlimit:10;stroke-width:10px;}.cls-2,.cls-3,.cls-8{fill:#272525;}.cls-3{font-size:120px;font-family:Roboto-Medium, Roboto;font-weight:500;}.cls-4{letter-spacing:-0.06em;}.cls-5{letter-spacing:0.01em;}.cls-6{letter-spacing:-0.03em;}.cls-7{letter-spacing:0.01em;}.cls-8{font-size:72px;font-family:Roboto-Light, Roboto;font-weight:300;}.cls-9{letter-spacing:-0.04em;}</style></defs><g id="Layer_2" data-name="Layer 2"><g id="graphic_element" data-name="graphic element"><path class="cls-1" d="M494.38,183.29H13.64c-5,0-8.94,4.73-8.62,10.32a9.71,9.71,0,0,0,.22,1.62l4.9,23.16c6.64,31.31,31.54,53.41,60.2,53.41H437.68c28.65,0,53.55-22.1,60.19-53.41l4.91-23.16a12.38,12.38,0,0,0,.22-1.62C503.32,188,499.37,183.29,494.38,183.29Z"/><rect class="cls-2" x="495.32" y="211.62" width="39.85" height="15.92"/><path class="cls-2" d="M808.58,237.88h-268c-3,0-5.38-2.8-5.38-6.24V205.55c0-3.36,2.28-6.11,5.17-6.24l268-12c3-.13,5.58,2.7,5.58,6.24v38.09C814,235.09,811.56,237.88,808.58,237.88Z"/><circle class="cls-2" cx="322.57" cy="117.28" r="31.47"/><rect class="cls-2" x="99.35" y="91.12" width="52.33" height="52.33"/><polygon class="cls-2" points="431 105.11 477.35 55.78 405.86 43.64 431 105.11"/><polygon class="cls-2" points="262.14 19 232.66 0 201.47 16.03 199.75 51.06 229.23 70.06 260.42 54.03 262.14 19"/></g><g id="Text"><text class="cls-3" transform="translate(32.2 457.04)"><tspan class="cls-4">T</tspan><tspan x="65.8" y="0">AS</tspan><tspan class="cls-5" x="218.09" y="0">T</tspan><tspan x="291.86" y="0">Y </tspan><tspan class="cls-6" x="394.86" y="0">B</tspan><tspan class="cls-7" x="467.34" y="0">Y</tspan><tspan x="541.46" y="0">TES</tspan></text><text class="cls-8" transform="translate(247.96 558.04)">RECEP<tspan class="cls-9" x="218.71" y="0">T</tspan><tspan x="258.93" y="0">AI</tspan></text></g></g></svg>